<svg width="1599" height="795" viewBox="0 0 1599 795" fill="none" xmlns="http://www.w3.org/2000/svg">
<rect width="1599" height="795" fill="white"/>
<ellipse cx="797" cy="434.505" rx="288" ry="288.505" fill="url(#paint0_linear_14_54)"/>
<g style="mix-blend-mode:screen" opacity="0.19">
<path d="M1076.99 434.505C1076.99 589.434 951.624 715.005 797 715.005C642.376 715.005 517.005 589.434 517.005 434.505C517.005 279.576 642.376 154.005 797 154.005C951.624 154.005 1076.99 279.576 1076.99 434.505Z" stroke="white" stroke-width="16.01"/>
</g>
<circle opacity="0.18" cx="911" cy="314" r="83" fill="white"/>
<circle opacity="0.14" cx="792" cy="252" r="190" fill="#AB81B2"/>
<path d="M655 435L659.504 443.496L668 448L659.504 452.504L655 461L650.496 452.504L642 448L650.496 443.496L655 435Z" fill="white" fill-opacity="0.4"/>
<path d="M809 488L811.945 493.555L817.5 496.5L811.945 499.445L809 505L806.055 499.445L800.5 496.5L806.055 493.555L809 488Z" fill="white"/>
<path d="M791 627L795.504 635.496L804 640L795.504 644.504L791 653L786.496 644.504L778 640L786.496 635.496L791 627Z" fill="white" fill-opacity="0.4"/>
<path d="M935 514L939.504 522.496L948 527L939.504 531.504L935 540L930.496 531.504L922 527L930.496 522.496L935 514Z" fill="white" fill-opacity="0.4"/>
<path d="M608.5 351L610.752 355.248L615 357.5L610.752 359.752L608.5 364L606.248 359.752L602 357.5L606.248 355.248L608.5 351Z" fill="white"/>
<path d="M728.5 270L731.272 275.228L736.5 278L731.272 280.772L728.5 286L725.728 280.772L720.5 278L725.728 275.228L728.5 270Z" fill="white"/>
<path d="M926.703 412.5C922.203 436 907.571 449.5 885.203 449.5C862.836 449.5 845.79 432.596 844.203 412.5C841.203 374.5 872.203 356.5 886.203 328C890.203 344 932.831 380.5 926.703 412.5Z" fill="#D9EDFF"/>
<path fill-rule="evenodd" clip-rule="evenodd" d="M886.501 329.021C886.677 339.411 888.28 354.154 893.703 365C902.703 383 912.703 428 886.703 443C882.006 445.71 879.89 447.706 879.629 449.143C881.444 449.378 883.305 449.5 885.203 449.5C907.571 449.5 922.203 436 926.703 412.5C930.75 391.367 913.532 368.271 900.22 350.413C893.792 341.791 888.275 334.39 886.501 329.021Z" fill="#C0DDF9"/>
<path d="M926.703 322.5C922.203 346 907.571 359.5 885.203 359.5C862.836 359.5 845.79 342.596 844.203 322.5C841.203 284.5 872.203 266.5 886.203 238C890.203 254 932.831 290.5 926.703 322.5Z" fill="#D9EDFF"/>
<path fill-rule="evenodd" clip-rule="evenodd" d="M886.501 239.021C886.677 249.411 888.28 264.154 893.703 275C902.703 293 912.703 338 886.703 353C882.006 355.71 879.89 357.706 879.629 359.143C881.444 359.378 883.305 359.5 885.203 359.5C907.571 359.5 922.203 346 926.703 322.5C930.75 301.367 913.532 278.271 900.22 260.413C893.792 251.791 888.275 244.39 886.501 239.021Z" fill="#C0DDF9"/>
<path d="M1053.7 374.5C1049.2 398 1034.57 411.5 1012.2 411.5C989.836 411.5 972.79 394.596 971.203 374.5C968.203 336.5 999.203 318.5 1013.2 290C1017.2 306 1059.83 342.5 1053.7 374.5Z" fill="#D9EDFF"/>
<path fill-rule="evenodd" clip-rule="evenodd" d="M1013.5 291.021C1013.68 301.411 1015.28 316.154 1020.7 327C1029.7 345 1039.7 390 1013.7 405C1009.01 407.71 1006.89 409.706 1006.63 411.143C1008.44 411.378 1010.3 411.5 1012.2 411.5C1034.57 411.5 1049.2 398 1053.7 374.5C1057.75 353.367 1040.53 330.271 1027.22 312.413C1020.79 303.791 1015.27 296.39 1013.5 291.021Z" fill="#C0DDF9"/>
<g opacity="0.2">
<path d="M607 241L599 282" stroke="white" stroke-width="3" stroke-linecap="round"/>
<path d="M639.5 173L631.5 214" stroke="white" stroke-width="3" stroke-linecap="round"/>
<path d="M625.5 228L610.5 309.5" stroke="white" stroke-width="3" stroke-linecap="round"/>
<path d="M659.5 205L645.5 284" stroke="white" stroke-width="3" stroke-linecap="round"/>
<path d="M669.5 249L655.5 328" stroke="white" stroke-width="3" stroke-linecap="round"/>
<path d="M727.5 225L713.5 304" stroke="white" stroke-width="3" stroke-linecap="round"/>
</g>
<g opacity="0.2">
<path d="M689 582L681 623" stroke="white" stroke-width="3" stroke-linecap="round"/>
<path d="M721.5 514L713.5 555" stroke="white" stroke-width="3" stroke-linecap="round"/>
<path d="M707.5 569L692.5 650.5" stroke="white" stroke-width="3" stroke-linecap="round"/>
<path d="M741.5 546L727.5 625" stroke="white" stroke-width="3" stroke-linecap="round"/>
<path d="M751.5 590L737.5 669" stroke="white" stroke-width="3" stroke-linecap="round"/>
<path d="M809.5 566L795.5 645" stroke="white" stroke-width="3" stroke-linecap="round"/>
</g>
<g opacity="0.2">
<path d="M894 495L886 536" stroke="white" stroke-width="3" stroke-linecap="round"/>
<path d="M926.5 427L918.5 468" stroke="white" stroke-width="3" stroke-linecap="round"/>
<path d="M912.5 482L897.5 563.5" stroke="white" stroke-width="3" stroke-linecap="round"/>
<path d="M946.5 459L932.5 538" stroke="white" stroke-width="3" stroke-linecap="round"/>
<path d="M956.5 503L942.5 582" stroke="white" stroke-width="3" stroke-linecap="round"/>
<path d="M1014.5 479L1000.5 558" stroke="white" stroke-width="3" stroke-linecap="round"/>
</g>
<path opacity="0.05" d="M739 343.5C739 400.222 782.525 446.777 838 451.59V452H846H1082H1090V451.149C1130.71 445.323 1162 410.318 1162 368C1162 336.484 1144.64 309.036 1119 294.669C1118.55 216.351 1054.92 153 976.5 153C919.418 153 870.191 186.562 847.445 235C787.548 235.029 739 283.595 739 343.5Z" stroke="black" stroke-width="16"/>
<g filter="url(#filter0_d_14_54)">
<path d="M1111 295.5C1111 296.835 1110.98 298.165 1110.94 299.491C1136.42 311.764 1154 337.829 1154 368C1154 408.632 1122.11 441.816 1082 443.897L1081 444H846L847 443.989C792.187 443.187 747 398.504 747 343.5C747 287.995 791.995 243 847.5 243C849.203 243 850.896 243.042 852.578 243.126C873.001 194.863 920.796 161 976.5 161C1050.78 161 1111 221.218 1111 295.5Z" fill="#F4F4F4"/>
<path d="M743 343.5C743 400.429 789.481 446.643 846 447.971V448H1081H1081.21L1081.41 447.979L1082.31 447.886C1124.49 445.644 1158 410.737 1158 368C1158 337.157 1140.55 310.398 1114.99 297.049C1115 296.533 1115 296.017 1115 295.5C1115 219.009 1052.99 157 976.5 157C920.115 157 871.608 190.693 849.999 239.029C849.168 239.01 848.335 239 847.5 239C789.786 239 743 285.786 743 343.5Z" stroke="white" stroke-width="8"/>
</g>
<defs>
<filter id="filter0_d_14_54" x="739" y="153" width="423" height="299" filterUnits="userSpaceOnUse" color-interpolation-filters="sRGB">
<feFlood flood-opacity="0" result="BackgroundImageFix"/>
<feColorMatrix in="SourceAlpha" type="matrix" values="0 0 0 0 0 0 0 0 0 0 0 0 0 0 0 0 0 0 127 0" result="hardAlpha"/>
<feOffset/>
<feColorMatrix type="matrix" values="0 0 0 0 0 0 0 0 0 0 0 0 0 0 0 0 0 0 1 0"/>
<feBlend mode="normal" in2="BackgroundImageFix" result="effect1_dropShadow_14_54"/>
<feBlend mode="normal" in="SourceGraphic" in2="effect1_dropShadow_14_54" result="shape"/>
</filter>
<linearGradient id="paint0_linear_14_54" x1="1011.5" y1="242.5" x2="601.5" y2="652.5" gradientUnits="userSpaceOnUse">
<stop offset="0.129268" stop-color="#AB81B2"/>
<stop offset="0.986585" stop-color="#4E3F92"/>
</linearGradient>
</defs>
</svg>
